<svg width="180" height="180" viewBox="0 0 180 180" fill="none" xmlns="http://www.w3.org/2000/svg">
  <rect width="180" height="180" fill="white"/>
  <clipPath id="c">
    <rect width="180" height="180"/>
  </clipPath>
  <!-- S + første del av m fra Smest-logoen -->
  <!-- S: glyph x≈0–12.5  |  m venstre stolpe: glyph x≈14–19 -->
  <!-- scale=9.2, tx=5, ty=-27: S fyller x 5–120, m stolpe synlig x 135–180 -->
  <g clip-path="url(#c)" transform="matrix(5.8,0,0,5.8,5,16)">
    <path
      fill="#111111"
      d="
        M6.3 5.38 c1.7467 0 3.1366 0.40002 4.17 1.2 s1.55 1.9333 1.55 3.4
        l-3.04 0 c-0.04 -0.72 -0.28334 -1.26 -0.73 -1.62
        s-1.1367 -0.54 -2.07 -0.54 c-0.65334 0 -1.18 0.14334 -1.58 0.43
        s-0.6 0.68332 -0.6 1.19 c0 0.41334 0.12334 0.71334 0.37 0.9
        s0.59666 0.35332 1.05 0.49998 s1.2467 0.36 2.38 0.64
        c1.1867 0.29334 2.1 0.61334 2.74 0.96 s1.1267 0.79 1.46 1.33
        s0.5 1.2033 0.5 1.99 c0 0.90666 -0.24 1.7133 -0.72 2.42
        s-1.18 1.2433 -2.1 1.61 s-1.96 0.55 -3.12 0.55
        c-1.7733 0 -3.23 -0.44334 -4.37 -1.33 s-1.71 -2.1034 -1.71 -3.65
        l0 -0.1 l3.04 0 c0 0.84 0.28666 1.49 0.86 1.95
        s1.3333 0.69 2.28 0.69 c0.84 0 1.5167 -0.15 2.03 -0.45
        s0.77 -0.74334 0.77 -1.33 c0 -0.38666 -0.14 -0.71332 -0.42 -0.97998
        s-0.65334 -0.48332 -1.12 -0.64998 s-1.2533 -0.37666 -2.36 -0.63
        c-1.28 -0.32 -2.2134 -0.66 -2.8 -1.02 s-1.0333 -0.79666 -1.34 -1.31
        s-0.46 -1.13 -0.46 -1.85 c0 -0.89334 0.25666 -1.6733 0.77 -2.34
        s1.1833 -1.16 2.01 -1.48 s1.68 -0.48 2.56 -0.48 z

        M20.02 9.38 c1.5067 0 2.5134 0.57332 3.02 1.72
        c0.78666 -1.1467 1.8333 -1.72 3.14 -1.72
        c1.2933 0 2.2434 0.32666 2.85 0.98 s0.91 1.5533 0.91 2.7
        l0 6.94 l-2.84 0 l0 -5.98
        c0 -0.90666 -0.13666 -1.5333 -0.41 -1.88
        s-0.71668 -0.52 -1.33 -0.52 c-1.2667 0 -1.9 0.86666 -1.9 2.6
        l0 5.78 l-2.84 0 l0 -6.1
        c0 -0.88 -0.14 -1.48 -0.42 -1.8
        s-0.71334 -0.48 -1.3 -0.48
        c-0.54666 0 -1.0033 0.21666 -1.37 0.65
        s-0.55 1.0033 -0.55 1.71 l0 6.02
        l-2.84 0 l0 -10.34 l2.68 0 l0 1.4 l0.04 0
        c0.78666 -1.12 1.84 -1.68 3.16 -1.68 z
      "/>
  </g>
</svg>
