<svg xmlns="http://www.w3.org/2000/svg" xmlns:xlink="http://www.w3.org/1999/xlink" version="1.1" width="3240" height="2774.702989403082" viewBox="0 0 3240 2774.702989403082">
			
			<g transform="scale(11.999999999999998) translate(10, 10)">
				<defs id="SvgjsDefs1941"/><g id="SvgjsG1942" featureKey="ghXSps-0" transform="matrix(1.6435599564833796,0,0,1.6435599564833796,65.8347506998221,-8.935567275962885)" fill="#000"><path xmlns="http://www.w3.org/2000/svg" d="M45.32,50.11H26.71c-2.62,0-2.62,3.94,0,3.94h18.61C47.94,54.04,47.94,50.11,45.32,50.11L45.32,50.11z M11.2,42.83  c-0.36,0.24-0.48,0.72-0.24,0.95c0.24,0.36,0.72,0.48,1.07,0.24l4.06-2.98c0.36-0.24,0.36-0.6,0.12-0.95  c-0.12-0.36-0.6-0.36-0.95-0.24L11.2,42.83z M6.43,19.81c-0.36,0-0.83,0.24-0.83,0.6c-0.12,0.48,0.24,0.83,0.6,0.83l5.01,0.83  c0.36,0.12,0.72-0.12,0.83-0.6c0-0.36-0.24-0.72-0.6-0.83L6.43,19.81z M6.31,31.02c-0.36,0.12-0.6,0.48-0.48,0.95  c0,0.36,0.48,0.6,0.83,0.48l4.89-0.95c0.36-0.12,0.72-0.48,0.6-0.83c-0.12-0.48-0.48-0.72-0.83-0.6L6.31,31.02z M11.32,8.12  C10.96,7.88,10.61,8,10.37,8.36c-0.24,0.36-0.12,0.72,0.12,0.95l4.29,2.86c0.36,0.12,0.72,0.12,0.95-0.24  c0.24-0.36,0.12-0.83-0.24-1.07L11.32,8.12z M60.82,42.83c0.36,0.24,0.36,0.72,0.12,0.95c-0.24,0.36-0.6,0.48-0.95,0.24l-4.17-2.98  c-0.24-0.24-0.36-0.6-0.12-0.95c0.24-0.36,0.72-0.36,0.95-0.24L60.82,42.83z M65.59,19.81c0.36,0,0.72,0.24,0.83,0.6  c0,0.48-0.24,0.83-0.6,0.83l-5.01,0.83c-0.36,0.12-0.83-0.12-0.83-0.6c-0.12-0.36,0.24-0.72,0.6-0.83L65.59,19.81z M65.59,31.02  c0.36,0.12,0.6,0.48,0.6,0.95c-0.12,0.36-0.48,0.6-0.83,0.48l-5.01-0.95c-0.36-0.12-0.6-0.48-0.6-0.83c0.12-0.48,0.48-0.72,0.95-0.6  L65.59,31.02z M60.58,8.12c0.36-0.24,0.83-0.12,1.07,0.24c0.24,0.36,0.12,0.72-0.24,0.95l-4.17,2.86c-0.36,0.12-0.83,0.12-1.07-0.24  c-0.24-0.36-0.12-0.83,0.24-1.07L60.58,8.12z M30.17,60.96c0.12,3.22,2.74,5.61,5.84,5.61l0,0c3.1,0,5.73-2.5,5.84-5.61H30.17z   M27.54,55.59c-2.5,0-2.5,3.94,0.12,3.94h16.7c2.5,0,2.62-3.94,0-3.94H27.54z M26.71,48.56h8.59v-4.41  c-0.48-0.12-0.95-0.36-1.31-0.72c-0.48-0.48-0.83-1.19-0.83-2.03c0-0.72,0.36-1.43,0.83-1.91c0.48-0.6,1.19-0.83,2.03-0.83  c0.72,0,1.43,0.24,1.91,0.83c0.6,0.48,0.83,1.19,0.83,1.91c0,0.83-0.24,1.55-0.83,2.03c-0.36,0.36-0.72,0.6-1.19,0.72v4.41h8.59  c0.12,0,0.36,0.12,0.6,0.12c0.12-4.17,0.95-5.84,4.41-10.38c2.03-2.62,4.06-5.37,4.89-9.54c0.72-3.82,0.24-7.87-1.19-11.45  c-1.07-2.5-2.62-4.65-4.65-6.56c-7.63-7.28-19.68-7.04-27.19,0.48c-3.58,3.46-5.84,8.35-5.84,13.84c0,6.32,2.74,9.9,5.25,13.24  c3.7,4.77,4.41,6.56,4.53,10.38C26.35,48.67,26.47,48.56,26.71,48.56L26.71,48.56z M27.42,35.79c0.36,1.31,1.55,2.27,3.1,2.27  c1.67-0.12,2.98-1.55,2.86-3.22c0-1.19-0.72-2.15-1.79-2.62c-0.83-0.48-0.24-1.79,0.6-1.31c0.36,0.12,0.72,0.36,0.95,0.6h0.12  c0.95-1.07,1.19-2.74,0.6-4.06c-0.12-0.24-0.24-0.48-0.36-0.72c-0.6,0.6-1.43,0.95-2.27,1.19c0,0.36-0.12,0.83-0.24,1.19  c-0.48,0.95-1.79,0.36-1.43-0.6c0.36-0.72,0.12-1.55-0.48-2.03c-0.72-0.6,0.24-1.67,0.95-1.07c0.36,0.24,0.6,0.6,0.83,1.07  c1.31-0.24,2.39-1.19,2.86-2.5c0.36-1.07,0.24-2.27-0.36-3.22c-0.36-0.48-0.72-0.95-1.19-1.19c-0.48,0.12-0.95,0.24-1.43,0.36  c-0.6,0-1.07-0.12-1.67-0.24c-0.83-0.24-0.48-1.67,0.48-1.43c0.36,0.12,0.72,0.24,1.07,0.12c1.91,0,3.22-1.67,3.22-3.46  c-0.12-1.79-1.67-3.22-3.58-3.22c-1.19,0.12-2.39,0.95-2.86,2.03h0.12c0.36,0.12,0.6,0.24,0.95,0.48c0.24-0.24,0.48-0.48,0.83-0.6  c0.83-0.36,1.43,0.95,0.6,1.31c-0.6,0.24-0.83,0.83-0.83,1.43c0.12,0.95-1.31,1.19-1.43,0.24c0-0.36,0-0.83,0.12-1.19  c-0.24-0.12-0.48-0.12-0.72-0.24c-0.95-0.36-2.15-0.12-2.98,0.72c-0.6,0.6-1.07,1.43-0.95,2.39c0,0.83,0.36,1.55,0.95,2.15  c0.72,0.6-0.24,1.67-0.95,1.07c-0.24-0.24-0.48-0.6-0.72-0.83c-1.07,0.72-1.79,1.91-1.67,3.34c0.12,2.03,1.91,3.7,3.94,3.58  c0.95,0,1.07,1.43,0.12,1.43c-0.72,0-1.43-0.12-2.15-0.36c-0.36,0.72-0.6,1.43-0.6,2.27c0.12,2.03,1.79,3.58,3.82,3.58  c0-0.36,0.12-0.72,0.24-1.07c-0.24-0.24-0.48-0.48-0.6-0.83c-0.48-0.83,0.83-1.43,1.31-0.6c0.24,0.6,0.83,0.83,1.43,0.83  c0.95-0.12,1.07,1.31,0.12,1.43c-0.36,0-0.72,0-1.07-0.12C27.19,34.72,27.19,35.2,27.42,35.79L27.42,35.79z M34.46,25.65  c0.36,0.36,0.6,0.72,0.72,1.19c0.95,1.91,0.48,4.17-0.95,5.73c0.36,0.72,0.6,1.43,0.6,2.15c0.12,2.5-1.79,4.65-4.29,4.77  c-1.19,0.12-2.39-0.36-3.22-1.19c-0.72-0.6-1.19-1.43-1.43-2.27c-2.74,0-5.13-2.27-5.25-5.01c0-1.07,0.24-2.15,0.83-2.98  c-1.31-0.95-2.15-2.39-2.15-4.06c-0.12-1.91,0.83-3.7,2.5-4.65c-0.12-0.36-0.12-0.72-0.12-1.07c-0.12-2.5,1.79-4.53,4.29-4.65l0,0  l0,0c0.6-1.91,2.27-3.22,4.29-3.34c2.62-0.12,4.89,1.91,5.01,4.65c0,1.43-0.6,2.86-1.79,3.82c0.48,0.36,0.83,0.83,1.07,1.19  c0.83,1.31,1.07,2.98,0.48,4.53C34.94,24.94,34.7,25.3,34.46,25.65L34.46,25.65z M25.52,22.55c-0.95-0.12-0.72-1.55,0.24-1.43  c0.24,0,0.36,0,0.6,0c0.95,0,0.95,1.43,0,1.43C26.11,22.67,25.87,22.55,25.52,22.55L25.52,22.55z M36.97,40.44  c-0.24-0.24-0.6-0.36-0.95-0.36c-0.36,0-0.72,0.12-0.95,0.36c-0.24,0.24-0.48,0.6-0.48,0.95s0.24,0.72,0.48,0.95  c0.24,0.24,0.6,0.48,0.95,0.48c0.36,0,0.72-0.24,0.95-0.48c0.24-0.24,0.36-0.6,0.36-0.95S37.2,40.68,36.97,40.44L36.97,40.44z   M46.39,22.55c-0.24,0-0.6,0.12-0.83,0c-0.95,0-0.83-1.43,0.12-1.43c0.12,0,0.36,0,0.6,0C47.1,21,47.34,22.43,46.39,22.55  L46.39,22.55z M37.44,25.65c-0.24-0.36-0.48-0.72-0.6-1.19c-0.48-1.55-0.36-3.22,0.6-4.53c0.24-0.36,0.6-0.83,0.95-1.19  c-1.19-0.95-1.79-2.39-1.67-3.82c0.12-2.74,2.27-4.77,5.01-4.65c1.91,0.12,3.58,1.43,4.29,3.34l0,0l0,0  c2.39,0.12,4.29,2.15,4.29,4.65c0,0.36-0.12,0.72-0.24,1.07c1.67,0.95,2.62,2.74,2.62,4.65c-0.12,1.67-0.95,3.1-2.15,4.06  c0.48,0.83,0.83,1.91,0.72,2.98c-0.12,2.74-2.39,5.01-5.25,5.01c-0.24,0.83-0.72,1.67-1.43,2.27c-0.83,0.83-1.91,1.31-3.22,1.19  c-2.5-0.12-4.41-2.27-4.29-4.77c0-0.72,0.24-1.43,0.72-2.15c-1.55-1.55-1.91-3.82-1.07-5.73C36.97,26.37,37.2,26.01,37.44,25.65  L37.44,25.65z M44.6,35.79c0.12-0.6,0.12-1.07,0-1.67c-0.36,0.12-0.72,0.12-1.07,0.12c-0.83-0.12-0.72-1.55,0.12-1.43  c0.72,0,1.19-0.24,1.55-0.83c0.36-0.83,1.67-0.24,1.31,0.6c-0.24,0.36-0.36,0.6-0.6,0.83c0.12,0.36,0.24,0.72,0.24,1.07  c1.91,0,3.58-1.55,3.7-3.58c0-0.83-0.12-1.55-0.6-2.27c-0.6,0.24-1.31,0.36-2.03,0.36c-0.95,0-0.95-1.43,0-1.43  c2.15,0.12,3.94-1.55,3.94-3.58c0.12-1.43-0.48-2.62-1.67-3.34c-0.12,0.24-0.36,0.6-0.72,0.83c-0.6,0.6-1.67-0.48-0.95-1.07  c0.6-0.6,0.95-1.31,1.07-2.15c0-0.95-0.36-1.79-1.07-2.39c-0.72-0.83-1.91-1.07-2.98-0.72c-0.24,0.12-0.48,0.12-0.6,0.24  c0,0.36,0.12,0.83,0,1.19c-0.12,0.95-1.55,0.72-1.43-0.24c0.12-0.6-0.24-1.19-0.72-1.43c-0.95-0.36-0.36-1.67,0.6-1.31  c0.24,0.12,0.6,0.36,0.72,0.6c0.36-0.24,0.72-0.36,1.07-0.48l0,0c-0.48-1.07-1.55-1.91-2.86-2.03c-1.79,0-3.46,1.43-3.46,3.22  c-0.12,1.79,1.31,3.46,3.1,3.46c0.48,0.12,0.83,0,1.19-0.12c0.83-0.24,1.31,1.19,0.36,1.43c-0.48,0.12-1.07,0.24-1.55,0.24  c-0.48-0.12-1.07-0.24-1.43-0.36c-0.48,0.24-0.95,0.72-1.19,1.19c-0.6,0.95-0.83,2.15-0.36,3.22c0.36,1.31,1.43,2.27,2.74,2.5  c0.24-0.48,0.6-0.83,0.95-1.07c0.72-0.6,1.55,0.48,0.83,1.07c-0.6,0.48-0.72,1.31-0.48,2.03c0.36,0.95-0.95,1.55-1.31,0.6  c-0.12-0.36-0.24-0.83-0.24-1.19c-0.83-0.24-1.67-0.6-2.39-1.19c-0.12,0.24-0.24,0.48-0.36,0.72c-0.6,1.31-0.24,2.98,0.72,4.06l0,0  c0.36-0.24,0.6-0.48,0.95-0.6c0.83-0.48,1.55,0.83,0.6,1.31c-0.95,0.48-1.67,1.43-1.79,2.62c0,1.67,1.31,3.1,2.98,3.22  C42.93,38.06,44.12,37.1,44.6,35.79L44.6,35.79z"/></g><g id="SvgjsG1943" featureKey="anH1Ye-0" transform="matrix(4.194629637488018,0,0,4.194629637488018,-2.0134243061557355,97.4328920702772)" fill="#000"><path d="M6.3 5.380000000000001 c1.7467 0 3.1366 0.40002 4.17 1.2 s1.55 1.9333 1.55 3.4 l-3.04 0 c-0.04 -0.72 -0.28334 -1.26 -0.73 -1.62 s-1.1367 -0.54 -2.07 -0.54 c-0.65334 0 -1.18 0.14334 -1.58 0.43 s-0.6 0.68332 -0.6 1.19 c0 0.41334 0.12334 0.71334 0.37 0.9 s0.59666 0.35332 1.05 0.49998 s1.2467 0.36 2.38 0.64 c1.1867 0.29334 2.1 0.61334 2.74 0.96 s1.1267 0.79 1.46 1.33 s0.5 1.2033 0.5 1.99 c0 0.90666 -0.24 1.7133 -0.72 2.42 s-1.18 1.2433 -2.1 1.61 s-1.96 0.55 -3.12 0.55 c-1.7733 0 -3.23 -0.44334 -4.37 -1.33 s-1.71 -2.1034 -1.71 -3.65 l0 -0.1 l3.04 0 c0 0.84 0.28666 1.49 0.86 1.95 s1.3333 0.69 2.28 0.69 c0.84 0 1.5167 -0.15 2.03 -0.45 s0.77 -0.74334 0.77 -1.33 c0 -0.38666 -0.14 -0.71332 -0.42 -0.97998 s-0.65334 -0.48332 -1.12 -0.64998 s-1.2533 -0.37666 -2.36 -0.63 c-1.28 -0.32 -2.2134 -0.66 -2.8 -1.02 s-1.0333 -0.79666 -1.34 -1.31 s-0.46 -1.13 -0.46 -1.85 c0 -0.89334 0.25666 -1.6733 0.77 -2.34 s1.1833 -1.16 2.01 -1.48 s1.68 -0.48 2.56 -0.48 z M20.02 9.38 c1.5067 0 2.5134 0.57332 3.02 1.72 c0.78666 -1.1467 1.8333 -1.72 3.14 -1.72 c1.2933 0 2.2434 0.32666 2.85 0.98 s0.91 1.5533 0.91 2.7 l0 6.94 l-2.84 0 l0 -5.98 c0 -0.90666 -0.13666 -1.5333 -0.41 -1.88 s-0.71668 -0.52 -1.33 -0.52 c-1.2667 0 -1.9 0.86666 -1.9 2.6 l0 5.78 l-2.84 0 l0 -6.1 c0 -0.88 -0.14 -1.48 -0.42 -1.8 s-0.71334 -0.48 -1.3 -0.48 c-0.54666 0 -1.0033 0.21666 -1.37 0.65 s-0.55 1.0033 -0.55 1.71 l0 6.02 l-2.84 0 l0 -10.34 l2.68 0 l0 1.4 l0.04 0 c0.78666 -1.12 1.84 -1.68 3.16 -1.68 z M36.96 9.38 c0.97334 0 1.84 0.22664 2.6 0.67998 s1.3567 1.11 1.79 1.97 s0.65 1.85 0.65 2.97 c0 0.10666 -0.0066602 0.28 -0.02 0.52 l-7.46 0 c0.02666 0.82666 0.24332 1.47 0.64998 1.93 s1.03 0.69 1.87 0.69 c0.52 0 0.99666 -0.13 1.43 -0.39 s0.71 -0.57666 0.83 -0.95 l2.5 0 c-0.73334 2.32 -2.3466 3.48 -4.84 3.48 c-0.94666 -0.01334 -1.8233 -0.22 -2.63 -0.62 s-1.45 -1.0233 -1.93 -1.87 s-0.72 -1.83 -0.72 -2.95 c0 -1.0533 0.24334 -2.0134 0.73 -2.88 s1.1333 -1.5133 1.94 -1.94 s1.6767 -0.64 2.61 -0.64 z M39.14 13.719999999999999 c-0.13334 -0.77334 -0.38 -1.3333 -0.74 -1.68 s-0.87334 -0.52 -1.54 -0.52 c-0.69334 0 -1.24 0.19666 -1.64 0.59 s-0.63334 0.93 -0.7 1.61 l4.62 0 z M47.9 9.38 c1.3867 0 2.47 0.28002 3.25 0.84002 s1.2167 1.38 1.31 2.46 l-2.7 0 c-0.04 -0.49334 -0.22 -0.85 -0.54 -1.07 s-0.78666 -0.33 -1.4 -0.33 c-0.53334 0 -0.93 0.08 -1.19 0.24 s-0.39 0.4 -0.39 0.72 c0 0.24 0.08666 0.44 0.26 0.6 s0.43668 0.3 0.79002 0.42 s0.74334 0.22 1.17 0.3 c1.2933 0.25334 2.2066 0.51334 2.74 0.78 s0.92334 0.58666 1.17 0.96 s0.37 0.83334 0.37 1.38 c0 1.16 -0.42334 2.05 -1.27 2.67 s-1.9967 0.93 -3.45 0.93 c-1.52 0 -2.7034 -0.32666 -3.55 -0.98 s-1.2833 -1.54 -1.31 -2.66 l2.7 0 c0 0.53334 0.20666 0.95668 0.62 1.27 s0.93334 0.47 1.56 0.47 c0.53334 0 0.97668 -0.11666 1.33 -0.35 s0.53 -0.55668 0.53 -0.97002 c0 -0.26666 -0.11 -0.48666 -0.33 -0.66 s-0.53 -0.32668 -0.93 -0.46002 s-1.02 -0.28668 -1.86 -0.46002 c-0.66666 -0.13334 -1.26 -0.31334 -1.78 -0.54 s-0.91666 -0.52332 -1.19 -0.88998 s-0.41 -0.81666 -0.41 -1.35 c0 -0.68 0.16334 -1.2733 0.49 -1.78 s0.82666 -0.89 1.5 -1.15 s1.51 -0.39 2.51 -0.39 z M58 6.5600000000000005 l0.000019531 3.1 l2.08 0 l0 1.9 l-2.08 0 l0 5.12 c0 0.48 0.08 0.8 0.24 0.96 s0.48 0.24 0.96 0.24 c0.34666 0 0.64 -0.02666 0.88 -0.08 l0 2.22 c-0.4 0.06666 -0.96 0.1 -1.68 0.1 c-1.0933 0 -1.9067 -0.18666 -2.44 -0.56 s-0.8 -1.02 -0.8 -1.94 l0 -6.06 l-1.72 0 l0 -1.9 l1.72 0 l0 -3.1 l2.84 0 z"/></g><g id="SvgjsG1944" featureKey="XxVAgm-0" transform="matrix(0.9298596307250105,0,0,0.9298596307250105,23.8841679553992,192.44208431024333)" fill="#000"><path d="M11.8 20 l-2.36 0 l-3.3 -4.88 l-0.24 0 l-2.5 0 l0 4.88 l-2.2 0 l0 -14 l4.7 0 c3.14 0 5.06 1.92 5.06 4.62 c0 1.96 -1.02 3.46 -2.78 4.12 z M3.4 8.04 l0 5.16 l2.4 0 c1.78 0 2.96 -0.84 2.96 -2.58 s-1.18 -2.58 -2.96 -2.58 l-2.4 0 z M30.316 4.619999999999999 c-1.16 0 -2.06 -0.92 -2.06 -2 c0 -1.1 0.9 -2.02 2.06 -2.02 c1.08 0 2 0.92 2 2.02 c0 1.08 -0.92 2 -2 2 z M30.275999999999996 1.9600000000000009 c-0.34 0 -0.62 0.28 -0.62 0.64 c0 0.34 0.28 0.62 0.62 0.62 s0.64 -0.28 0.64 -0.62 c0 -0.36 -0.3 -0.64 -0.64 -0.64 z M35.156 20 l-1.28 -2.96 l-7.16 0 l-1.28 2.96 l-2.34 0 l6.24 -14 l1.92 0 l6.24 14 l-2.34 0 z M27.516 15.219999999999999 l5.56 0 l-2.78 -6.44 z M53.912 6 c4.04 0 7.08 3.1 7.08 6.96 c0 3.94 -3.04 7.04 -7.08 7.04 l-4.52 0 l0 -14 l4.52 0 z M53.892 17.92 c3.06 0 4.86 -2.22 4.86 -4.96 c0 -2.66 -1.8 -4.88 -4.86 -4.88 l-2.3 0 l0 9.84 l2.3 0 z M86.508 12.780000000000001 c0.44 4.58 -2.62 7.42 -6.32 7.42 c-3.84 0 -7.2 -2.96 -7.2 -7.2 s3.44 -7.2 7.2 -7.2 c1.8 0 3.42 0.6 4.66 1.66 l-1.34 1.52 c-0.88 -0.68 -2.02 -1.1 -3.18 -1.1 c-2.72 0 -5.06 2.12 -5.06 5.12 s2.26 5.12 4.92 5.12 c2.22 0 3.86 -1.02 4.28 -3.44 l-3.74 0 l0 -1.9 l5.78 0 z M101.144 6 l0 14 l-2.2 0 l0 -14 l2.2 0 z M125.1 6 l2.34 0 l-6.24 14 l-1.92 0 l-6.24 -14 l2.34 0 l4.86 11.22 z M148.83599999999998 6 l2.2 0 l0 14 l-1.68 0 l-7.82 -9.98 l0 9.98 l-2.2 0 l0 -14 l1.7 0 l7.8 10 l0 -10 z M165.932 6 l0 14 l-2.2 0 l0 -14 l2.2 0 z M188.128 6 l2.2 0 l0 14 l-1.68 0 l-7.82 -9.98 l0 9.98 l-2.2 0 l0 -14 l1.7 0 l7.8 10 l0 -10 z M216.244 12.780000000000001 c0.44 4.58 -2.62 7.42 -6.32 7.42 c-3.84 0 -7.2 -2.96 -7.2 -7.2 s3.44 -7.2 7.2 -7.2 c1.8 0 3.42 0.6 4.66 1.66 l-1.34 1.52 c-0.88 -0.68 -2.02 -1.1 -3.18 -1.1 c-2.72 0 -5.06 2.12 -5.06 5.12 s2.26 5.12 4.92 5.12 c2.22 0 3.86 -1.02 4.28 -3.44 l-3.74 0 l0 -1.9 l5.78 0 z"/></g>
			</g>
		</svg>
